<svg width="60" height="60" viewBox="0 0 60 60" fill="none" xmlns="http://www.w3.org/2000/svg">
<g clip-path="url(#clip0_1152_22724)">
<path d="M30.4137 0H29.5863C29.5863 16.3299 16.3468 29.5863 0 29.5863V30.4137C16.3299 30.4137 29.5863 43.6533 29.5863 60H30.4137C30.4137 43.6701 43.6533 30.4137 60 30.4137V29.5863C43.6701 29.5863 30.4137 16.3468 30.4137 0Z" fill="#F5F5F5"/>
<path d="M31.686 29.8561C32.07 30.0801 32.378 30.3841 32.61 30.7681C32.842 31.1441 32.958 31.5201 32.958 31.8961C32.958 32.3841 32.83 32.8241 32.574 33.2161C32.326 33.6001 31.978 33.9001 31.53 34.1161C31.082 34.3321 30.57 34.4401 29.994 34.4401C29.426 34.4401 28.918 34.3281 28.47 34.1041C28.022 33.8801 27.67 33.5721 27.414 33.1801C27.166 32.7801 27.042 32.3281 27.042 31.8241H28.314C28.314 32.1121 28.386 32.3681 28.53 32.5921C28.674 32.8161 28.87 32.9921 29.118 33.1201C29.374 33.2481 29.666 33.3121 29.994 33.3121C30.33 33.3121 30.626 33.2481 30.882 33.1201C31.146 32.9921 31.35 32.8161 31.494 32.5921C31.646 32.3681 31.722 32.1121 31.722 31.8241C31.722 31.5441 31.65 31.2961 31.506 31.0801C31.362 30.8641 31.158 30.6961 30.894 30.5761C30.638 30.4481 30.346 30.3841 30.018 30.3841H29.394V29.3161H30.03C30.334 29.3161 30.602 29.2601 30.834 29.1481C31.074 29.0361 31.258 28.8841 31.386 28.6921C31.522 28.4921 31.59 28.2641 31.59 28.0081C31.59 27.6161 31.45 27.3001 31.17 27.0601C30.89 26.8121 30.526 26.6881 30.078 26.6881C29.782 26.6881 29.522 26.7441 29.298 26.8561C29.074 26.9681 28.898 27.1281 28.77 27.3361C28.642 27.5361 28.578 27.7641 28.578 28.0201H27.306C27.306 27.5401 27.422 27.1161 27.654 26.7481C27.894 26.3721 28.222 26.0801 28.638 25.8721C29.062 25.6641 29.542 25.5601 30.078 25.5601C30.606 25.5601 31.078 25.6641 31.494 25.8721C31.91 26.0721 32.234 26.3521 32.466 26.7121C32.706 27.0721 32.826 27.4801 32.826 27.9361C32.826 28.2801 32.722 28.6321 32.514 28.9921C32.306 29.3441 32.03 29.6321 31.686 29.8561Z" fill="#9A9A9A"/>
</g>
<defs>
<clipPath id="clip0_1152_22724">
<rect width="60" height="60" fill="white"/>
</clipPath>
</defs>
</svg>
