<svg width="60" height="60" viewBox="0 0 60 60" fill="none" xmlns="http://www.w3.org/2000/svg">
<g clip-path="url(#clip0_1334_19263)">
<path d="M30.4137 0H29.5863C29.5863 16.3299 16.3468 29.5863 0 29.5863V30.4137C16.3299 30.4137 29.5863 43.6533 29.5863 60H30.4137C30.4137 43.6701 43.6533 30.4137 60 30.4137V29.5863C43.6701 29.5863 30.4137 16.3468 30.4137 0Z" fill="#EFF91D"/>
</g>
<path d="M27.3062 33.2938C27.4982 33.1098 27.6982 32.9258 27.9062 32.7418C28.1142 32.5498 28.3222 32.3618 28.5302 32.1778C29.1782 31.6018 29.6942 31.1258 30.0782 30.7498C30.4622 30.3658 30.7862 29.9738 31.0502 29.5738C31.3142 29.1738 31.4462 28.7938 31.4462 28.4338C31.4462 28.1058 31.3822 27.8178 31.2542 27.5698C31.1262 27.3138 30.9462 27.1138 30.7142 26.9698C30.4902 26.8258 30.2302 26.7538 29.9342 26.7538C29.5902 26.7538 29.2622 26.8658 28.9502 27.0898C28.6462 27.3138 28.4142 27.6018 28.2542 27.9538L27.1382 27.4618C27.3782 26.9098 27.7582 26.4618 28.2782 26.1178C28.8062 25.7658 29.3582 25.5898 29.9342 25.5898C30.4782 25.5898 30.9582 25.7098 31.3742 25.9498C31.7982 26.1898 32.1262 26.5258 32.3582 26.9578C32.5982 27.3898 32.7182 27.8818 32.7182 28.4338C32.7182 28.9778 32.5582 29.5138 32.2382 30.0418C31.9182 30.5698 31.5342 31.0578 31.0862 31.5058C30.6382 31.9538 30.0542 32.4858 29.3342 33.1018C28.8782 33.4858 28.4822 33.8378 28.1462 34.1578L27.3062 33.2938ZM27.3062 33.2938H32.8622V34.4098H27.4262L27.3062 33.2938Z" fill="#161317"/>
<defs>
<clipPath id="clip0_1334_19263">
<rect width="60" height="60" fill="white"/>
</clipPath>
</defs>
</svg>
