<svg width="60" height="60" viewBox="0 0 60 60" fill="none" xmlns="http://www.w3.org/2000/svg">
<g clip-path="url(#clip0_1313_20642)">
<path d="M30.4137 0H29.5863C29.5863 16.3299 16.3468 29.5863 0 29.5863V30.4137C16.3299 30.4137 29.5863 43.6533 29.5863 60H30.4137C30.4137 43.6701 43.6533 30.4137 60 30.4137V29.5863C43.6701 29.5863 30.4137 16.3468 30.4137 0Z" fill="#FC1DA4"/>
<path d="M29.8612 33.776C30.2532 33.776 30.6012 33.636 30.9052 33.356C31.2092 33.076 31.4452 32.688 31.6132 32.192C31.7812 31.688 31.8652 31.108 31.8652 30.452C31.8652 29.796 31.7812 29.216 31.6132 28.712C31.4452 28.208 31.2092 27.816 30.9052 27.536C30.6012 27.256 30.2532 27.116 29.8612 27.116C29.4692 27.116 29.1172 27.256 28.8052 27.536C28.5012 27.816 28.2652 28.208 28.0972 28.712C27.9292 29.216 27.8452 29.796 27.8452 30.452C27.8452 31.108 27.9292 31.688 28.0972 32.192C28.2652 32.688 28.5012 33.076 28.8052 33.356C29.1172 33.636 29.4692 33.776 29.8612 33.776ZM29.8612 34.904C29.2292 34.904 28.6612 34.716 28.1572 34.34C27.6612 33.956 27.2732 33.428 26.9932 32.756C26.7132 32.076 26.5732 31.308 26.5732 30.452C26.5732 29.588 26.7132 28.82 26.9932 28.148C27.2732 27.468 27.6612 26.94 28.1572 26.564C28.6532 26.188 29.2212 26 29.8612 26C30.4932 26 31.0572 26.188 31.5532 26.564C32.0492 26.94 32.4372 27.468 32.7172 28.148C32.9972 28.82 33.1372 29.588 33.1372 30.452C33.1372 31.308 32.9972 32.076 32.7172 32.756C32.4372 33.428 32.0492 33.956 31.5532 34.34C31.0572 34.716 30.4932 34.904 29.8612 34.904Z" fill="#161317"/>
</g>
<defs>
<clipPath id="clip0_1313_20642">
<rect width="60" height="60" fill="white"/>
</clipPath>
</defs>
</svg>
